<svg xmlns="http://www.w3.org/2000/svg" xmlns:xlink="http://www.w3.org/1999/xlink" width="1024" zoomAndPan="magnify" viewBox="0 0 768 767.999994" height="1024" preserveAspectRatio="xMidYMid meet" version="1.0"><defs><clipPath id="168e955bf4"><path d="M 69 0 L 700 0 L 700 767 L 69 767 Z M 69 0 " clip-rule="nonzero"/></clipPath><clipPath id="4f3cae0e2c"><path d="M 309.828125 766.660156 L 178.875 766.660156 C 118.648438 766.660156 69.371094 717.226562 69.371094 656.804688 C 69.371094 596.386719 118.648438 546.953125 178.875 546.953125 L 292.269531 546.953125 C 386.132812 546.953125 480.34375 473.976562 480.34375 383.738281 C 480.34375 293.503906 404.472656 220.527344 310.609375 220.527344 L 178.875 220.527344 C 118.648438 220.527344 69.371094 171.09375 69.371094 110.671875 C 69.371094 50.253906 118.648438 0.820312 178.875 0.820312 L 310.609375 0.820312 C 524.929688 0.820312 699.359375 172.664062 699.359375 383.738281 C 698.578125 595.605469 524.144531 766.660156 309.828125 766.660156 Z M 309.828125 766.660156 " clip-rule="nonzero"/></clipPath><clipPath id="351fa266f1"><path d="M 69 1 L 286 1 L 286 767 L 69 767 Z M 69 1 " clip-rule="nonzero"/></clipPath><clipPath id="778b5e231f"><path d="M 177.21875 766.660156 C 117.902344 766.660156 69.371094 718.121094 69.371094 658.796875 L 69.371094 109.453125 C 69.371094 50.128906 117.902344 1.589844 177.21875 1.589844 C 236.535156 1.589844 285.066406 50.128906 285.066406 109.453125 L 285.066406 658.796875 C 285.066406 718.121094 236.535156 766.660156 177.21875 766.660156 Z M 177.21875 766.660156 " clip-rule="nonzero"/></clipPath></defs><g clip-path="url(#168e955bf4)"><g clip-path="url(#4f3cae0e2c)"><path fill="#ffffff" d="M 69.371094 0.820312 L 69.371094 766.660156 L 699.359375 766.660156 L 699.359375 0.820312 Z M 69.371094 0.820312 " fill-opacity="1" fill-rule="nonzero"/></g></g><g clip-path="url(#351fa266f1)"><g clip-path="url(#778b5e231f)"><path fill="#ffffff" d="M 69.371094 1.589844 L 69.371094 766.660156 L 285.066406 766.660156 L 285.066406 1.589844 Z M 69.371094 1.589844 " fill-opacity="1" fill-rule="nonzero"/></g></g></svg>